<?xml version="1.0" encoding="utf-8"?>
<!-- Generator: Adobe Illustrator 16.0.0, SVG Export Plug-In . SVG Version: 6.00 Build 0)  -->
<!DOCTYPE svg PUBLIC "-//W3C//DTD SVG 1.1//EN" "http://www.w3.org/Graphics/SVG/1.1/DTD/svg11.dtd">
<svg version="1.1" id="Layer_1" xmlns="http://www.w3.org/2000/svg" xmlns:xlink="http://www.w3.org/1999/xlink" x="0px" y="0px"
	 width="83.545px" height="95px" viewBox="0 0 83.545 95" enable-background="new 0 0 83.545 95" xml:space="preserve">
<g>
	<path fill="#1A1A1A" d="M54.984,94.923l28.562-6.185c0,0-10.31-69.724-10.386-70.182s-0.459-0.763-0.841-0.763
		c-0.381,0-7.637-0.535-7.637-0.535s-5.04-5.041-5.651-5.574c-0.152-0.154-0.304-0.229-0.457-0.306L54.984,94.923z"/>
	<path fill="#1A1A1A" d="M57.352,11.226c-0.078,0-0.229,0.077-0.306,0.077s-1.146,0.305-2.825,0.84
		C52.54,7.255,49.562,2.75,44.292,2.75c-0.152,0-0.306,0-0.458,0C42.307,0.84,40.474,0,38.871,0
		C26.575,0,20.695,15.351,18.862,23.139c-4.734,1.452-8.17,2.521-8.553,2.673c-2.673,0.84-2.75,0.916-3.055,3.436
		C6.949,31.082,0,84.92,0,84.92L53.686,95L57.352,11.226z M43.375,14.968c0,0.152,0,0.382,0,0.535
		c-2.978,0.916-6.262,1.909-9.469,2.901c1.833-7.025,5.27-10.463,8.248-11.76C42.918,8.629,43.375,11.303,43.375,14.968z
		 M38.488,3.284c0.535,0,1.07,0.153,1.604,0.534c-3.894,1.833-8.171,6.492-9.928,15.808c-2.596,0.84-5.117,1.604-7.483,2.292
		C24.743,14.815,29.707,3.284,38.488,3.284z M40.627,44.751c0,0-3.208-1.68-7.025-1.68c-5.728,0-5.957,3.589-5.957,4.506
		c0,4.887,12.829,6.797,12.829,18.327c0,9.088-5.727,14.892-13.517,14.892c-9.316,0-14.051-5.804-14.051-5.804l2.521-8.248
		c0,0,4.887,4.2,9.011,4.2c2.673,0,3.818-2.138,3.818-3.666c0-6.414-10.538-6.721-10.538-17.259c0-8.858,6.338-17.488,19.244-17.488
		c4.964,0,7.408,1.451,7.408,1.451L40.627,44.751z M45.514,6.11c2.749,0.306,4.507,3.437,5.65,6.95
		c-1.374,0.458-2.901,0.917-4.581,1.451c0-0.305,0-0.611,0-0.993C46.583,10.54,46.202,8.096,45.514,6.11z"/>
</g>
</svg>
